<mxfile host="app.diagrams.net" modified="2024-04-04T12:27:42.530Z" agent="Mozilla/5.0 (X11; Linux x86_64) AppleWebKit/537.36 (KHTML, like Gecko) Chrome/114.0.0.0 Safari/537.36" etag="5oyCtman0eB9Bmi0RTbR" version="24.0.7" type="github">
  <diagram id="prtHgNgQTEPvFCAcTncT" name="Page-1">
    <mxGraphModel dx="1034" dy="1076" grid="0" gridSize="15" guides="1" tooltips="1" connect="1" arrows="1" fold="1" page="0" pageScale="1" pageWidth="827" pageHeight="1169" math="0" shadow="1">
      <root>
        <mxCell id="0" />
        <mxCell id="1" parent="0" />
        <mxCell id="mm9sd67sM0A_G5Sb0UkS-7" style="edgeStyle=orthogonalEdgeStyle;rounded=0;orthogonalLoop=1;jettySize=auto;html=1;entryX=0;entryY=0.5;entryDx=0;entryDy=0;fontSize=18;" parent="1" target="mm9sd67sM0A_G5Sb0UkS-6" edge="1">
          <mxGeometry relative="1" as="geometry">
            <mxPoint x="64" y="361" as="targetPoint" />
            <mxPoint x="54" y="361" as="sourcePoint" />
          </mxGeometry>
        </mxCell>
        <mxCell id="mm9sd67sM0A_G5Sb0UkS-6" value="" style="ellipse;whiteSpace=wrap;html=1;aspect=fixed;hachureGap=4;fillColor=#dae8fc;strokeColor=#6c8ebf;rounded=0;fontSize=18;" parent="1" vertex="1">
          <mxGeometry x="104" y="321" width="80" height="80" as="geometry" />
        </mxCell>
        <mxCell id="mm9sd67sM0A_G5Sb0UkS-9" style="edgeStyle=orthogonalEdgeStyle;rounded=0;orthogonalLoop=1;jettySize=auto;html=1;exitX=1;exitY=0.5;exitDx=0;exitDy=0;entryX=0;entryY=0.5;entryDx=0;entryDy=0;fontSize=18;" parent="1" source="mm9sd67sM0A_G5Sb0UkS-6" target="mm9sd67sM0A_G5Sb0UkS-8" edge="1">
          <mxGeometry relative="1" as="geometry" />
        </mxCell>
        <mxCell id="mm9sd67sM0A_G5Sb0UkS-20" style="edgeStyle=orthogonalEdgeStyle;rounded=0;orthogonalLoop=1;jettySize=auto;html=1;exitX=1;exitY=0.5;exitDx=0;exitDy=0;entryX=0;entryY=0.5;entryDx=0;entryDy=0;fontSize=18;" parent="1" target="mm9sd67sM0A_G5Sb0UkS-22" edge="1">
          <mxGeometry relative="1" as="geometry">
            <mxPoint x="334" y="361" as="sourcePoint" />
          </mxGeometry>
        </mxCell>
        <mxCell id="mm9sd67sM0A_G5Sb0UkS-21" value="" style="group;fontSize=18;" parent="1" vertex="1" connectable="0">
          <mxGeometry x="404" y="321" width="80" height="80" as="geometry" />
        </mxCell>
        <mxCell id="mm9sd67sM0A_G5Sb0UkS-22" value="du" style="ellipse;whiteSpace=wrap;html=1;aspect=fixed;hachureGap=4;fillColor=#dae8fc;strokeColor=#6c8ebf;rounded=0;fontSize=18;" parent="mm9sd67sM0A_G5Sb0UkS-21" vertex="1">
          <mxGeometry width="80" height="80" as="geometry" />
        </mxCell>
        <mxCell id="mm9sd67sM0A_G5Sb0UkS-23" value="u" style="text;html=1;align=center;verticalAlign=middle;resizable=0;points=[];autosize=1;strokeColor=none;fillColor=none;fontSize=18;" parent="1" vertex="1">
          <mxGeometry x="345.5" y="315" width="45" height="45" as="geometry" />
        </mxCell>
        <mxCell id="mm9sd67sM0A_G5Sb0UkS-24" value="" style="group;fontSize=18;" parent="1" vertex="1" connectable="0">
          <mxGeometry x="555.5" y="321" width="80" height="80" as="geometry" />
        </mxCell>
        <mxCell id="mm9sd67sM0A_G5Sb0UkS-31" style="edgeStyle=orthogonalEdgeStyle;rounded=0;orthogonalLoop=1;jettySize=auto;html=1;exitX=1;exitY=0.5;exitDx=0;exitDy=0;fontSize=18;" parent="mm9sd67sM0A_G5Sb0UkS-24" source="mm9sd67sM0A_G5Sb0UkS-25" edge="1">
          <mxGeometry relative="1" as="geometry">
            <mxPoint x="138.5" y="40" as="targetPoint" />
          </mxGeometry>
        </mxCell>
        <mxCell id="mm9sd67sM0A_G5Sb0UkS-25" value="dud" style="ellipse;whiteSpace=wrap;html=1;aspect=fixed;hachureGap=4;fillColor=#dae8fc;strokeColor=#6c8ebf;rounded=0;fontSize=18;" parent="mm9sd67sM0A_G5Sb0UkS-24" vertex="1">
          <mxGeometry width="80" height="80" as="geometry" />
        </mxCell>
        <mxCell id="mm9sd67sM0A_G5Sb0UkS-27" style="edgeStyle=orthogonalEdgeStyle;rounded=0;orthogonalLoop=1;jettySize=auto;html=1;exitX=1;exitY=0.5;exitDx=0;exitDy=0;entryX=0;entryY=0.5;entryDx=0;entryDy=0;fontSize=18;" parent="1" source="mm9sd67sM0A_G5Sb0UkS-22" target="mm9sd67sM0A_G5Sb0UkS-25" edge="1">
          <mxGeometry relative="1" as="geometry" />
        </mxCell>
        <mxCell id="mm9sd67sM0A_G5Sb0UkS-28" value="d" style="text;html=1;align=center;verticalAlign=middle;resizable=0;points=[];autosize=1;strokeColor=none;fillColor=none;fontSize=18;" parent="1" vertex="1">
          <mxGeometry x="493" y="313" width="45" height="45" as="geometry" />
        </mxCell>
        <mxCell id="mm9sd67sM0A_G5Sb0UkS-32" value="e" style="text;html=1;align=center;verticalAlign=middle;resizable=0;points=[];autosize=1;strokeColor=none;fillColor=none;fontSize=18;" parent="1" vertex="1">
          <mxGeometry x="643" y="313" width="45" height="45" as="geometry" />
        </mxCell>
        <mxCell id="mm9sd67sM0A_G5Sb0UkS-35" value="" style="ellipse;whiteSpace=wrap;html=1;aspect=fixed;hachureGap=4;fillColor=#dae8fc;strokeColor=#6c8ebf;rounded=0;fontSize=18;" parent="1" vertex="1">
          <mxGeometry x="694" y="321" width="80" height="80" as="geometry" />
        </mxCell>
        <mxCell id="mm9sd67sM0A_G5Sb0UkS-36" value="" style="ellipse;whiteSpace=wrap;html=1;aspect=fixed;hachureGap=4;rounded=0;fontSize=18;" parent="1" vertex="1">
          <mxGeometry x="709" y="336" width="50" height="50" as="geometry" />
        </mxCell>
        <mxCell id="mm9sd67sM0A_G5Sb0UkS-37" style="edgeStyle=orthogonalEdgeStyle;rounded=0;orthogonalLoop=1;jettySize=auto;html=1;exitX=0.5;exitY=0;exitDx=0;exitDy=0;entryX=0.5;entryY=0;entryDx=0;entryDy=0;fontSize=18;" parent="1" source="mm9sd67sM0A_G5Sb0UkS-8" target="mm9sd67sM0A_G5Sb0UkS-6" edge="1">
          <mxGeometry relative="1" as="geometry">
            <Array as="points">
              <mxPoint x="294" y="271" />
              <mxPoint x="144" y="271" />
            </Array>
          </mxGeometry>
        </mxCell>
        <mxCell id="mm9sd67sM0A_G5Sb0UkS-38" style="edgeStyle=orthogonalEdgeStyle;rounded=0;orthogonalLoop=1;jettySize=auto;html=1;exitX=0.5;exitY=1;exitDx=0;exitDy=0;entryX=0;entryY=1;entryDx=0;entryDy=0;curved=1;fontSize=18;" parent="1" source="mm9sd67sM0A_G5Sb0UkS-6" target="mm9sd67sM0A_G5Sb0UkS-6" edge="1">
          <mxGeometry relative="1" as="geometry">
            <Array as="points">
              <mxPoint x="144" y="431" />
              <mxPoint x="116" y="431" />
            </Array>
          </mxGeometry>
        </mxCell>
        <mxCell id="mm9sd67sM0A_G5Sb0UkS-39" style="edgeStyle=orthogonalEdgeStyle;rounded=0;orthogonalLoop=1;jettySize=auto;html=1;exitX=0.5;exitY=0;exitDx=0;exitDy=0;entryX=1;entryY=0;entryDx=0;entryDy=0;curved=1;fontSize=18;" parent="1" source="mm9sd67sM0A_G5Sb0UkS-35" target="mm9sd67sM0A_G5Sb0UkS-35" edge="1">
          <mxGeometry relative="1" as="geometry">
            <Array as="points">
              <mxPoint x="734" y="291" />
              <mxPoint x="762" y="291" />
            </Array>
          </mxGeometry>
        </mxCell>
        <mxCell id="mm9sd67sM0A_G5Sb0UkS-40" value="∑" style="text;html=1;align=center;verticalAlign=middle;resizable=0;points=[];autosize=1;strokeColor=none;fillColor=none;fontSize=18;" parent="1" vertex="1">
          <mxGeometry x="729" y="237" width="45" height="45" as="geometry" />
        </mxCell>
        <mxCell id="mm9sd67sM0A_G5Sb0UkS-42" value="∑- u" style="text;html=1;align=center;verticalAlign=middle;resizable=0;points=[];autosize=1;strokeColor=none;fillColor=none;strokeWidth=1;fontSize=18;" parent="1" vertex="1">
          <mxGeometry x="173" y="223" width="75" height="45" as="geometry" />
        </mxCell>
        <mxCell id="mm9sd67sM0A_G5Sb0UkS-11" value="" style="group;fontSize=18;" parent="1" vertex="1" connectable="0">
          <mxGeometry x="254" y="321" width="80" height="80" as="geometry" />
        </mxCell>
        <mxCell id="mm9sd67sM0A_G5Sb0UkS-8" value="d" style="ellipse;whiteSpace=wrap;html=1;aspect=fixed;hachureGap=4;fillColor=#dae8fc;strokeColor=#6c8ebf;rounded=0;fontSize=18;" parent="mm9sd67sM0A_G5Sb0UkS-11" vertex="1">
          <mxGeometry width="80" height="80" as="geometry" />
        </mxCell>
        <mxCell id="mm9sd67sM0A_G5Sb0UkS-14" value="d" style="text;html=1;align=center;verticalAlign=middle;resizable=0;points=[];autosize=1;strokeColor=none;fillColor=none;fontSize=18;" parent="1" vertex="1">
          <mxGeometry x="197" y="315" width="45" height="45" as="geometry" />
        </mxCell>
        <mxCell id="mm9sd67sM0A_G5Sb0UkS-44" value="∑- d" style="text;html=1;align=center;verticalAlign=middle;resizable=0;points=[];autosize=1;strokeColor=none;fillColor=none;fontSize=18;" parent="1" vertex="1">
          <mxGeometry x="90" y="432" width="75" height="45" as="geometry" />
        </mxCell>
        <mxCell id="M_DK1BdY7dgoIv5enWq1-1" style="edgeStyle=orthogonalEdgeStyle;rounded=0;orthogonalLoop=1;jettySize=auto;html=1;exitX=0.5;exitY=1;exitDx=0;exitDy=0;entryX=1;entryY=1;entryDx=0;entryDy=0;" parent="1" source="mm9sd67sM0A_G5Sb0UkS-22" target="mm9sd67sM0A_G5Sb0UkS-6" edge="1">
          <mxGeometry relative="1" as="geometry">
            <Array as="points">
              <mxPoint x="444" y="461" />
              <mxPoint x="172" y="461" />
            </Array>
          </mxGeometry>
        </mxCell>
        <mxCell id="M_DK1BdY7dgoIv5enWq1-2" value="∑- d" style="text;html=1;align=center;verticalAlign=middle;resizable=0;points=[];autosize=1;strokeColor=none;fillColor=none;fontSize=18;" parent="1" vertex="1">
          <mxGeometry x="374" y="461" width="75" height="45" as="geometry" />
        </mxCell>
        <mxCell id="M_DK1BdY7dgoIv5enWq1-3" style="edgeStyle=orthogonalEdgeStyle;rounded=0;orthogonalLoop=1;jettySize=auto;html=1;exitX=0.5;exitY=0;exitDx=0;exitDy=0;entryX=0;entryY=0;entryDx=0;entryDy=0;" parent="1" source="mm9sd67sM0A_G5Sb0UkS-25" target="mm9sd67sM0A_G5Sb0UkS-6" edge="1">
          <mxGeometry relative="1" as="geometry">
            <Array as="points">
              <mxPoint x="596" y="206" />
              <mxPoint x="116" y="206" />
            </Array>
          </mxGeometry>
        </mxCell>
        <mxCell id="M_DK1BdY7dgoIv5enWq1-4" value="∑- e" style="text;html=1;align=center;verticalAlign=middle;resizable=0;points=[];autosize=1;strokeColor=none;fillColor=none;fontSize=18;" parent="1" vertex="1">
          <mxGeometry x="524" y="161" width="75" height="45" as="geometry" />
        </mxCell>
        <mxCell id="M_DK1BdY7dgoIv5enWq1-35" style="edgeStyle=orthogonalEdgeStyle;rounded=0;orthogonalLoop=1;jettySize=auto;html=1;exitX=1;exitY=0.5;exitDx=0;exitDy=0;entryX=0;entryY=0.5;entryDx=0;entryDy=0;fontSize=18;" parent="1" edge="1">
          <mxGeometry relative="1" as="geometry">
            <mxPoint x="181.5" y="831" as="sourcePoint" />
            <mxPoint x="251.5" y="831" as="targetPoint" />
          </mxGeometry>
        </mxCell>
        <mxCell id="M_DK1BdY7dgoIv5enWq1-36" style="edgeStyle=orthogonalEdgeStyle;rounded=0;orthogonalLoop=1;jettySize=auto;html=1;exitX=1;exitY=0.5;exitDx=0;exitDy=0;entryX=0;entryY=0.5;entryDx=0;entryDy=0;fontSize=18;" parent="1" edge="1">
          <mxGeometry relative="1" as="geometry">
            <mxPoint x="331.5" y="831" as="sourcePoint" />
            <mxPoint x="401.5" y="831" as="targetPoint" />
          </mxGeometry>
        </mxCell>
        <mxCell id="M_DK1BdY7dgoIv5enWq1-39" value="u" style="text;html=1;align=center;verticalAlign=middle;resizable=0;points=[];autosize=1;strokeColor=none;fillColor=none;fontSize=18;" parent="1" vertex="1">
          <mxGeometry x="343" y="785" width="45" height="45" as="geometry" />
        </mxCell>
        <mxCell id="M_DK1BdY7dgoIv5enWq1-43" style="edgeStyle=orthogonalEdgeStyle;rounded=0;orthogonalLoop=1;jettySize=auto;html=1;exitX=1;exitY=0.5;exitDx=0;exitDy=0;entryX=0;entryY=0.5;entryDx=0;entryDy=0;fontSize=18;" parent="1" edge="1">
          <mxGeometry relative="1" as="geometry">
            <mxPoint x="481.5" y="831" as="sourcePoint" />
            <mxPoint x="553" y="831" as="targetPoint" />
          </mxGeometry>
        </mxCell>
        <mxCell id="M_DK1BdY7dgoIv5enWq1-44" value="d" style="text;html=1;align=center;verticalAlign=middle;resizable=0;points=[];autosize=1;strokeColor=none;fillColor=none;fontSize=18;" parent="1" vertex="1">
          <mxGeometry x="490.5" y="783" width="45" height="45" as="geometry" />
        </mxCell>
        <mxCell id="M_DK1BdY7dgoIv5enWq1-45" value="e" style="text;html=1;align=center;verticalAlign=middle;resizable=0;points=[];autosize=1;strokeColor=none;fillColor=none;fontSize=18;" parent="1" vertex="1">
          <mxGeometry x="640.5" y="783" width="45" height="45" as="geometry" />
        </mxCell>
        <mxCell id="M_DK1BdY7dgoIv5enWq1-48" style="edgeStyle=orthogonalEdgeStyle;rounded=0;orthogonalLoop=1;jettySize=auto;html=1;exitX=0.5;exitY=0;exitDx=0;exitDy=0;entryX=0.5;entryY=0;entryDx=0;entryDy=0;fontSize=18;" parent="1" edge="1">
          <mxGeometry relative="1" as="geometry">
            <Array as="points">
              <mxPoint x="291.5" y="741" />
              <mxPoint x="141.5" y="741" />
            </Array>
            <mxPoint x="291.5" y="791" as="sourcePoint" />
            <mxPoint x="141.5" y="791" as="targetPoint" />
          </mxGeometry>
        </mxCell>
        <mxCell id="M_DK1BdY7dgoIv5enWq1-51" value="∑" style="text;html=1;align=center;verticalAlign=middle;resizable=0;points=[];autosize=1;strokeColor=none;fillColor=none;fontSize=18;" parent="1" vertex="1">
          <mxGeometry x="726.5" y="707" width="45" height="45" as="geometry" />
        </mxCell>
        <mxCell id="M_DK1BdY7dgoIv5enWq1-52" value="∑- u" style="text;html=1;align=center;verticalAlign=middle;resizable=0;points=[];autosize=1;strokeColor=none;fillColor=none;strokeWidth=1;fontSize=18;" parent="1" vertex="1">
          <mxGeometry x="170.5" y="693" width="75" height="45" as="geometry" />
        </mxCell>
        <mxCell id="M_DK1BdY7dgoIv5enWq1-55" value="d" style="text;html=1;align=center;verticalAlign=middle;resizable=0;points=[];autosize=1;strokeColor=none;fillColor=none;fontSize=18;" parent="1" vertex="1">
          <mxGeometry x="194.5" y="785" width="45" height="45" as="geometry" />
        </mxCell>
        <mxCell id="M_DK1BdY7dgoIv5enWq1-56" value="∑- d" style="text;html=1;align=center;verticalAlign=middle;resizable=0;points=[];autosize=1;strokeColor=none;fillColor=none;fontSize=18;" parent="1" vertex="1">
          <mxGeometry x="87.5" y="902" width="75" height="45" as="geometry" />
        </mxCell>
        <mxCell id="M_DK1BdY7dgoIv5enWq1-57" style="edgeStyle=orthogonalEdgeStyle;rounded=0;orthogonalLoop=1;jettySize=auto;html=1;exitX=0.5;exitY=1;exitDx=0;exitDy=0;entryX=1;entryY=1;entryDx=0;entryDy=0;" parent="1" edge="1">
          <mxGeometry relative="1" as="geometry">
            <Array as="points">
              <mxPoint x="441.5" y="931" />
              <mxPoint x="169.5" y="931" />
            </Array>
            <mxPoint x="441.5" y="871" as="sourcePoint" />
            <mxPoint x="169.78427124746167" y="859.2842712474619" as="targetPoint" />
          </mxGeometry>
        </mxCell>
        <mxCell id="M_DK1BdY7dgoIv5enWq1-58" value="∑- d" style="text;html=1;align=center;verticalAlign=middle;resizable=0;points=[];autosize=1;strokeColor=none;fillColor=none;fontSize=18;" parent="1" vertex="1">
          <mxGeometry x="371.5" y="931" width="75" height="45" as="geometry" />
        </mxCell>
        <mxCell id="M_DK1BdY7dgoIv5enWq1-59" style="edgeStyle=orthogonalEdgeStyle;rounded=0;orthogonalLoop=1;jettySize=auto;html=1;exitX=0.5;exitY=0;exitDx=0;exitDy=0;entryX=0;entryY=0;entryDx=0;entryDy=0;" parent="1" edge="1">
          <mxGeometry relative="1" as="geometry">
            <Array as="points">
              <mxPoint x="593.5" y="676" />
              <mxPoint x="113.5" y="676" />
            </Array>
            <mxPoint x="593" y="791" as="sourcePoint" />
            <mxPoint x="113.21572875253833" y="802.7157287525381" as="targetPoint" />
          </mxGeometry>
        </mxCell>
        <mxCell id="M_DK1BdY7dgoIv5enWq1-60" value="∑- e" style="text;html=1;align=center;verticalAlign=middle;resizable=0;points=[];autosize=1;strokeColor=none;fillColor=none;fontSize=18;" parent="1" vertex="1">
          <mxGeometry x="521.5" y="631" width="75" height="45" as="geometry" />
        </mxCell>
        <mxCell id="M_DK1BdY7dgoIv5enWq1-65" value="" style="group" parent="1" vertex="1" connectable="0">
          <mxGeometry x="551" y="791" width="80" height="80" as="geometry" />
        </mxCell>
        <mxCell id="M_DK1BdY7dgoIv5enWq1-66" value="" style="ellipse;whiteSpace=wrap;html=1;aspect=fixed;hachureGap=4;fillColor=#dae8fc;strokeColor=#6c8ebf;rounded=0;fontSize=18;" parent="M_DK1BdY7dgoIv5enWq1-65" vertex="1">
          <mxGeometry width="80" height="80" as="geometry" />
        </mxCell>
        <mxCell id="M_DK1BdY7dgoIv5enWq1-67" value="" style="ellipse;whiteSpace=wrap;html=1;aspect=fixed;hachureGap=4;rounded=0;fontSize=18;" parent="M_DK1BdY7dgoIv5enWq1-65" vertex="1">
          <mxGeometry x="15" y="15" width="50" height="50" as="geometry" />
        </mxCell>
        <mxCell id="M_DK1BdY7dgoIv5enWq1-69" value="" style="group" parent="1" vertex="1" connectable="0">
          <mxGeometry x="402" y="790" width="80" height="80" as="geometry" />
        </mxCell>
        <mxCell id="M_DK1BdY7dgoIv5enWq1-70" value="" style="ellipse;whiteSpace=wrap;html=1;aspect=fixed;hachureGap=4;fillColor=#dae8fc;strokeColor=#6c8ebf;rounded=0;fontSize=18;" parent="M_DK1BdY7dgoIv5enWq1-69" vertex="1">
          <mxGeometry width="80" height="80" as="geometry" />
        </mxCell>
        <mxCell id="M_DK1BdY7dgoIv5enWq1-71" value="" style="ellipse;whiteSpace=wrap;html=1;aspect=fixed;hachureGap=4;rounded=0;fontSize=18;" parent="M_DK1BdY7dgoIv5enWq1-69" vertex="1">
          <mxGeometry x="15" y="15" width="50" height="50" as="geometry" />
        </mxCell>
        <mxCell id="M_DK1BdY7dgoIv5enWq1-72" value="" style="group" parent="1" vertex="1" connectable="0">
          <mxGeometry x="251" y="793" width="80" height="80" as="geometry" />
        </mxCell>
        <mxCell id="M_DK1BdY7dgoIv5enWq1-73" value="" style="ellipse;whiteSpace=wrap;html=1;aspect=fixed;hachureGap=4;fillColor=#dae8fc;strokeColor=#6c8ebf;rounded=0;fontSize=18;" parent="M_DK1BdY7dgoIv5enWq1-72" vertex="1">
          <mxGeometry width="80" height="80" as="geometry" />
        </mxCell>
        <mxCell id="M_DK1BdY7dgoIv5enWq1-74" value="" style="ellipse;whiteSpace=wrap;html=1;aspect=fixed;hachureGap=4;rounded=0;fontSize=18;" parent="M_DK1BdY7dgoIv5enWq1-72" vertex="1">
          <mxGeometry x="15" y="15" width="50" height="50" as="geometry" />
        </mxCell>
        <mxCell id="M_DK1BdY7dgoIv5enWq1-75" value="" style="group" parent="1" vertex="1" connectable="0">
          <mxGeometry x="97" y="793" width="80" height="80" as="geometry" />
        </mxCell>
        <mxCell id="M_DK1BdY7dgoIv5enWq1-76" value="" style="ellipse;whiteSpace=wrap;html=1;aspect=fixed;hachureGap=4;fillColor=#dae8fc;strokeColor=#6c8ebf;rounded=0;fontSize=18;" parent="M_DK1BdY7dgoIv5enWq1-75" vertex="1">
          <mxGeometry width="80" height="80" as="geometry" />
        </mxCell>
        <mxCell id="M_DK1BdY7dgoIv5enWq1-77" value="" style="ellipse;whiteSpace=wrap;html=1;aspect=fixed;hachureGap=4;rounded=0;fontSize=18;" parent="M_DK1BdY7dgoIv5enWq1-75" vertex="1">
          <mxGeometry x="15" y="15" width="50" height="50" as="geometry" />
        </mxCell>
        <mxCell id="M_DK1BdY7dgoIv5enWq1-49" style="edgeStyle=orthogonalEdgeStyle;rounded=0;orthogonalLoop=1;jettySize=auto;html=1;exitX=0.5;exitY=1;exitDx=0;exitDy=0;entryX=0;entryY=1;entryDx=0;entryDy=0;curved=1;fontSize=18;" parent="1" edge="1">
          <mxGeometry relative="1" as="geometry">
            <Array as="points">
              <mxPoint x="141.5" y="901" />
              <mxPoint x="113.5" y="901" />
            </Array>
            <mxPoint x="141.5" y="871" as="sourcePoint" />
            <mxPoint x="113.21572875253833" y="859.2842712474619" as="targetPoint" />
          </mxGeometry>
        </mxCell>
        <mxCell id="M_DK1BdY7dgoIv5enWq1-33" style="edgeStyle=orthogonalEdgeStyle;rounded=0;orthogonalLoop=1;jettySize=auto;html=1;entryX=0;entryY=0.5;entryDx=0;entryDy=0;fontSize=18;" parent="1" edge="1">
          <mxGeometry relative="1" as="geometry">
            <mxPoint x="101.5" y="831" as="targetPoint" />
            <mxPoint x="51.5" y="831" as="sourcePoint" />
          </mxGeometry>
        </mxCell>
        <mxCell id="M_DK1BdY7dgoIv5enWq1-78" value="" style="ellipse;whiteSpace=wrap;html=1;aspect=fixed;hachureGap=4;fillColor=#dae8fc;strokeColor=#6c8ebf;rounded=0;fontSize=18;" parent="1" vertex="1">
          <mxGeometry x="704" y="791" width="80" height="80" as="geometry" />
        </mxCell>
        <mxCell id="M_DK1BdY7dgoIv5enWq1-79" style="edgeStyle=orthogonalEdgeStyle;rounded=0;orthogonalLoop=1;jettySize=auto;html=1;exitX=1;exitY=0.5;exitDx=0;exitDy=0;entryX=0;entryY=0.5;entryDx=0;entryDy=0;" parent="1" source="M_DK1BdY7dgoIv5enWq1-66" target="M_DK1BdY7dgoIv5enWq1-78" edge="1">
          <mxGeometry relative="1" as="geometry" />
        </mxCell>
        <mxCell id="M_DK1BdY7dgoIv5enWq1-80" style="edgeStyle=orthogonalEdgeStyle;rounded=0;orthogonalLoop=1;jettySize=auto;html=1;exitX=0.5;exitY=0;exitDx=0;exitDy=0;entryX=1;entryY=0;entryDx=0;entryDy=0;curved=1;" parent="1" source="M_DK1BdY7dgoIv5enWq1-78" target="M_DK1BdY7dgoIv5enWq1-78" edge="1">
          <mxGeometry relative="1" as="geometry">
            <Array as="points">
              <mxPoint x="744" y="753" />
              <mxPoint x="772" y="753" />
            </Array>
          </mxGeometry>
        </mxCell>
        <mxCell id="t6iT2jLAAF5-1r6rAyUo-1" style="edgeStyle=orthogonalEdgeStyle;rounded=0;orthogonalLoop=1;jettySize=auto;html=1;entryX=0;entryY=0.5;entryDx=0;entryDy=0;fontSize=18;" edge="1" parent="1" target="t6iT2jLAAF5-1r6rAyUo-2">
          <mxGeometry relative="1" as="geometry">
            <mxPoint x="1038" y="361" as="targetPoint" />
            <mxPoint x="1028" y="361" as="sourcePoint" />
          </mxGeometry>
        </mxCell>
        <mxCell id="t6iT2jLAAF5-1r6rAyUo-4" value="" style="edgeStyle=orthogonalEdgeStyle;rounded=0;orthogonalLoop=1;jettySize=auto;html=1;" edge="1" parent="1" source="t6iT2jLAAF5-1r6rAyUo-2" target="t6iT2jLAAF5-1r6rAyUo-3">
          <mxGeometry relative="1" as="geometry" />
        </mxCell>
        <mxCell id="t6iT2jLAAF5-1r6rAyUo-22" value="" style="edgeStyle=orthogonalEdgeStyle;rounded=0;orthogonalLoop=1;jettySize=auto;html=1;fontFamily=Helvetica;fontSize=18;fontColor=default;" edge="1" parent="1" source="t6iT2jLAAF5-1r6rAyUo-2" target="t6iT2jLAAF5-1r6rAyUo-21">
          <mxGeometry relative="1" as="geometry" />
        </mxCell>
        <mxCell id="t6iT2jLAAF5-1r6rAyUo-2" value="x0" style="ellipse;whiteSpace=wrap;html=1;aspect=fixed;hachureGap=4;fillColor=#dae8fc;strokeColor=#6c8ebf;rounded=0;fontSize=18;" vertex="1" parent="1">
          <mxGeometry x="1078" y="321" width="80" height="80" as="geometry" />
        </mxCell>
        <mxCell id="t6iT2jLAAF5-1r6rAyUo-6" value="" style="edgeStyle=orthogonalEdgeStyle;rounded=0;orthogonalLoop=1;jettySize=auto;html=1;" edge="1" parent="1" source="t6iT2jLAAF5-1r6rAyUo-3" target="t6iT2jLAAF5-1r6rAyUo-5">
          <mxGeometry relative="1" as="geometry" />
        </mxCell>
        <mxCell id="t6iT2jLAAF5-1r6rAyUo-3" value="x1" style="ellipse;whiteSpace=wrap;html=1;aspect=fixed;hachureGap=4;fillColor=#dae8fc;strokeColor=#6c8ebf;rounded=0;fontSize=18;" vertex="1" parent="1">
          <mxGeometry x="1238" y="321" width="80" height="80" as="geometry" />
        </mxCell>
        <mxCell id="t6iT2jLAAF5-1r6rAyUo-8" value="" style="edgeStyle=orthogonalEdgeStyle;rounded=0;orthogonalLoop=1;jettySize=auto;html=1;" edge="1" parent="1" source="t6iT2jLAAF5-1r6rAyUo-5" target="t6iT2jLAAF5-1r6rAyUo-7">
          <mxGeometry relative="1" as="geometry" />
        </mxCell>
        <mxCell id="t6iT2jLAAF5-1r6rAyUo-5" value="x2" style="ellipse;whiteSpace=wrap;html=1;aspect=fixed;hachureGap=4;fillColor=#dae8fc;strokeColor=#6c8ebf;rounded=0;fontSize=18;" vertex="1" parent="1">
          <mxGeometry x="1398" y="321" width="80" height="80" as="geometry" />
        </mxCell>
        <mxCell id="t6iT2jLAAF5-1r6rAyUo-10" value="" style="edgeStyle=orthogonalEdgeStyle;rounded=0;orthogonalLoop=1;jettySize=auto;html=1;" edge="1" parent="1" source="t6iT2jLAAF5-1r6rAyUo-7" target="t6iT2jLAAF5-1r6rAyUo-9">
          <mxGeometry relative="1" as="geometry" />
        </mxCell>
        <mxCell id="t6iT2jLAAF5-1r6rAyUo-7" value="x3" style="ellipse;whiteSpace=wrap;html=1;aspect=fixed;hachureGap=4;fillColor=#dae8fc;strokeColor=#6c8ebf;rounded=0;fontSize=18;" vertex="1" parent="1">
          <mxGeometry x="1558" y="321" width="80" height="80" as="geometry" />
        </mxCell>
        <mxCell id="t6iT2jLAAF5-1r6rAyUo-12" value="" style="edgeStyle=orthogonalEdgeStyle;rounded=0;orthogonalLoop=1;jettySize=auto;html=1;" edge="1" parent="1" source="t6iT2jLAAF5-1r6rAyUo-9" target="t6iT2jLAAF5-1r6rAyUo-11">
          <mxGeometry relative="1" as="geometry" />
        </mxCell>
        <mxCell id="t6iT2jLAAF5-1r6rAyUo-9" value="x4" style="ellipse;whiteSpace=wrap;html=1;aspect=fixed;hachureGap=4;fillColor=#dae8fc;strokeColor=#6c8ebf;rounded=0;fontSize=18;" vertex="1" parent="1">
          <mxGeometry x="1718" y="321" width="80" height="80" as="geometry" />
        </mxCell>
        <mxCell id="t6iT2jLAAF5-1r6rAyUo-13" style="edgeStyle=orthogonalEdgeStyle;rounded=0;orthogonalLoop=1;jettySize=auto;html=1;entryX=0.5;entryY=0;entryDx=0;entryDy=0;" edge="1" parent="1" source="t6iT2jLAAF5-1r6rAyUo-11" target="t6iT2jLAAF5-1r6rAyUo-2">
          <mxGeometry relative="1" as="geometry">
            <mxPoint x="1116.666748046875" y="312.3333740234375" as="targetPoint" />
            <Array as="points">
              <mxPoint x="1918" y="219" />
              <mxPoint x="1117" y="219" />
            </Array>
          </mxGeometry>
        </mxCell>
        <mxCell id="t6iT2jLAAF5-1r6rAyUo-11" value="x5" style="ellipse;whiteSpace=wrap;html=1;aspect=fixed;hachureGap=4;fillColor=#dae8fc;strokeColor=#6c8ebf;rounded=0;fontSize=18;" vertex="1" parent="1">
          <mxGeometry x="1878" y="321" width="80" height="80" as="geometry" />
        </mxCell>
        <mxCell id="t6iT2jLAAF5-1r6rAyUo-15" value="0" style="text;html=1;align=center;verticalAlign=middle;resizable=0;points=[];autosize=1;strokeColor=none;fillColor=none;fontFamily=Helvetica;fontSize=18;fontColor=default;" vertex="1" parent="1">
          <mxGeometry x="1179" y="321" width="28" height="34" as="geometry" />
        </mxCell>
        <mxCell id="t6iT2jLAAF5-1r6rAyUo-16" value="0" style="text;html=1;align=center;verticalAlign=middle;resizable=0;points=[];autosize=1;strokeColor=none;fillColor=none;fontFamily=Helvetica;fontSize=18;fontColor=default;" vertex="1" parent="1">
          <mxGeometry x="1341" y="318.5" width="28" height="34" as="geometry" />
        </mxCell>
        <mxCell id="t6iT2jLAAF5-1r6rAyUo-17" value="0" style="text;html=1;align=center;verticalAlign=middle;resizable=0;points=[];autosize=1;strokeColor=none;fillColor=none;fontFamily=Helvetica;fontSize=18;fontColor=default;" vertex="1" parent="1">
          <mxGeometry x="1504" y="320.5" width="28" height="34" as="geometry" />
        </mxCell>
        <mxCell id="t6iT2jLAAF5-1r6rAyUo-18" value="0" style="text;html=1;align=center;verticalAlign=middle;resizable=0;points=[];autosize=1;strokeColor=none;fillColor=none;fontFamily=Helvetica;fontSize=18;fontColor=default;" vertex="1" parent="1">
          <mxGeometry x="1668" y="321" width="28" height="34" as="geometry" />
        </mxCell>
        <mxCell id="t6iT2jLAAF5-1r6rAyUo-19" value="0" style="text;html=1;align=center;verticalAlign=middle;resizable=0;points=[];autosize=1;strokeColor=none;fillColor=none;fontFamily=Helvetica;fontSize=18;fontColor=default;" vertex="1" parent="1">
          <mxGeometry x="1828" y="321" width="28" height="34" as="geometry" />
        </mxCell>
        <mxCell id="t6iT2jLAAF5-1r6rAyUo-20" value="0" style="text;html=1;align=center;verticalAlign=middle;resizable=0;points=[];autosize=1;strokeColor=none;fillColor=none;fontFamily=Helvetica;fontSize=18;fontColor=default;" vertex="1" parent="1">
          <mxGeometry x="1501" y="176" width="28" height="34" as="geometry" />
        </mxCell>
        <mxCell id="t6iT2jLAAF5-1r6rAyUo-24" value="" style="edgeStyle=orthogonalEdgeStyle;rounded=0;orthogonalLoop=1;jettySize=auto;html=1;fontFamily=Helvetica;fontSize=18;fontColor=default;" edge="1" parent="1" source="t6iT2jLAAF5-1r6rAyUo-21" target="t6iT2jLAAF5-1r6rAyUo-23">
          <mxGeometry relative="1" as="geometry" />
        </mxCell>
        <mxCell id="t6iT2jLAAF5-1r6rAyUo-21" value="y1" style="ellipse;whiteSpace=wrap;html=1;aspect=fixed;hachureGap=4;fillColor=#dae8fc;strokeColor=#6c8ebf;rounded=0;fontSize=18;" vertex="1" parent="1">
          <mxGeometry x="1078" y="448" width="80" height="80" as="geometry" />
        </mxCell>
        <mxCell id="t6iT2jLAAF5-1r6rAyUo-26" value="" style="edgeStyle=orthogonalEdgeStyle;rounded=0;orthogonalLoop=1;jettySize=auto;html=1;fontFamily=Helvetica;fontSize=18;fontColor=default;" edge="1" parent="1" source="t6iT2jLAAF5-1r6rAyUo-23" target="t6iT2jLAAF5-1r6rAyUo-25">
          <mxGeometry relative="1" as="geometry" />
        </mxCell>
        <mxCell id="t6iT2jLAAF5-1r6rAyUo-23" value="y2" style="ellipse;whiteSpace=wrap;html=1;aspect=fixed;hachureGap=4;fillColor=#dae8fc;strokeColor=#6c8ebf;rounded=0;fontSize=18;" vertex="1" parent="1">
          <mxGeometry x="1078" y="567" width="80" height="80" as="geometry" />
        </mxCell>
        <mxCell id="t6iT2jLAAF5-1r6rAyUo-25" value="y3" style="ellipse;whiteSpace=wrap;html=1;aspect=fixed;hachureGap=4;fillColor=#dae8fc;strokeColor=#6c8ebf;rounded=0;fontSize=18;" vertex="1" parent="1">
          <mxGeometry x="1078" y="682" width="80" height="80" as="geometry" />
        </mxCell>
        <mxCell id="t6iT2jLAAF5-1r6rAyUo-27" value="" style="edgeStyle=orthogonalEdgeStyle;rounded=0;orthogonalLoop=1;jettySize=auto;html=1;fontFamily=Helvetica;fontSize=18;fontColor=default;" edge="1" parent="1" target="t6iT2jLAAF5-1r6rAyUo-29">
          <mxGeometry relative="1" as="geometry">
            <mxPoint x="1118" y="762" as="sourcePoint" />
          </mxGeometry>
        </mxCell>
        <mxCell id="t6iT2jLAAF5-1r6rAyUo-28" value="" style="edgeStyle=orthogonalEdgeStyle;rounded=0;orthogonalLoop=1;jettySize=auto;html=1;fontFamily=Helvetica;fontSize=18;fontColor=default;" edge="1" parent="1" source="t6iT2jLAAF5-1r6rAyUo-29" target="t6iT2jLAAF5-1r6rAyUo-31">
          <mxGeometry relative="1" as="geometry" />
        </mxCell>
        <mxCell id="t6iT2jLAAF5-1r6rAyUo-29" value="y4" style="ellipse;whiteSpace=wrap;html=1;aspect=fixed;hachureGap=4;fillColor=#dae8fc;strokeColor=#6c8ebf;rounded=0;fontSize=18;" vertex="1" parent="1">
          <mxGeometry x="1078" y="809" width="80" height="80" as="geometry" />
        </mxCell>
        <mxCell id="t6iT2jLAAF5-1r6rAyUo-30" value="" style="edgeStyle=orthogonalEdgeStyle;rounded=0;orthogonalLoop=1;jettySize=auto;html=1;fontFamily=Helvetica;fontSize=18;fontColor=default;" edge="1" parent="1" source="t6iT2jLAAF5-1r6rAyUo-31" target="t6iT2jLAAF5-1r6rAyUo-32">
          <mxGeometry relative="1" as="geometry" />
        </mxCell>
        <mxCell id="t6iT2jLAAF5-1r6rAyUo-31" value="y5" style="ellipse;whiteSpace=wrap;html=1;aspect=fixed;hachureGap=4;fillColor=#dae8fc;strokeColor=#6c8ebf;rounded=0;fontSize=18;" vertex="1" parent="1">
          <mxGeometry x="1078" y="928" width="80" height="80" as="geometry" />
        </mxCell>
        <mxCell id="t6iT2jLAAF5-1r6rAyUo-34" style="edgeStyle=orthogonalEdgeStyle;rounded=0;orthogonalLoop=1;jettySize=auto;html=1;entryX=0;entryY=0.5;entryDx=0;entryDy=0;fontFamily=Helvetica;fontSize=18;fontColor=default;" edge="1" parent="1" source="t6iT2jLAAF5-1r6rAyUo-32" target="t6iT2jLAAF5-1r6rAyUo-21">
          <mxGeometry relative="1" as="geometry">
            <Array as="points">
              <mxPoint x="1011" y="1083" />
              <mxPoint x="1011" y="488" />
            </Array>
          </mxGeometry>
        </mxCell>
        <mxCell id="t6iT2jLAAF5-1r6rAyUo-32" value="y6" style="ellipse;whiteSpace=wrap;html=1;aspect=fixed;hachureGap=4;fillColor=#dae8fc;strokeColor=#6c8ebf;rounded=0;fontSize=18;" vertex="1" parent="1">
          <mxGeometry x="1078" y="1043" width="80" height="80" as="geometry" />
        </mxCell>
        <mxCell id="t6iT2jLAAF5-1r6rAyUo-33" value="" style="ellipse;whiteSpace=wrap;html=1;aspect=fixed;align=center;verticalAlign=middle;fontFamily=Helvetica;fontSize=18;fontColor=default;fillColor=none;gradientColor=none;" vertex="1" parent="1">
          <mxGeometry x="1084.5" y="327.5" width="67" height="67" as="geometry" />
        </mxCell>
        <mxCell id="t6iT2jLAAF5-1r6rAyUo-35" value="1" style="text;html=1;align=center;verticalAlign=middle;resizable=0;points=[];autosize=1;strokeColor=none;fillColor=none;fontFamily=Helvetica;fontSize=18;fontColor=default;" vertex="1" parent="1">
          <mxGeometry x="1081" y="407" width="28" height="34" as="geometry" />
        </mxCell>
        <mxCell id="t6iT2jLAAF5-1r6rAyUo-36" value="1" style="text;html=1;align=center;verticalAlign=middle;resizable=0;points=[];autosize=1;strokeColor=none;fillColor=none;fontFamily=Helvetica;fontSize=18;fontColor=default;" vertex="1" parent="1">
          <mxGeometry x="1081" y="533" width="28" height="34" as="geometry" />
        </mxCell>
        <mxCell id="t6iT2jLAAF5-1r6rAyUo-37" value="1" style="text;html=1;align=center;verticalAlign=middle;resizable=0;points=[];autosize=1;strokeColor=none;fillColor=none;fontFamily=Helvetica;fontSize=18;fontColor=default;" vertex="1" parent="1">
          <mxGeometry x="1076" y="644" width="28" height="34" as="geometry" />
        </mxCell>
        <mxCell id="t6iT2jLAAF5-1r6rAyUo-38" value="1" style="text;html=1;align=center;verticalAlign=middle;resizable=0;points=[];autosize=1;strokeColor=none;fillColor=none;fontFamily=Helvetica;fontSize=18;fontColor=default;" vertex="1" parent="1">
          <mxGeometry x="1076" y="769" width="28" height="34" as="geometry" />
        </mxCell>
        <mxCell id="t6iT2jLAAF5-1r6rAyUo-39" value="1" style="text;html=1;align=center;verticalAlign=middle;resizable=0;points=[];autosize=1;strokeColor=none;fillColor=none;fontFamily=Helvetica;fontSize=18;fontColor=default;" vertex="1" parent="1">
          <mxGeometry x="1076" y="894" width="28" height="34" as="geometry" />
        </mxCell>
        <mxCell id="t6iT2jLAAF5-1r6rAyUo-40" value="1" style="text;html=1;align=center;verticalAlign=middle;resizable=0;points=[];autosize=1;strokeColor=none;fillColor=none;fontFamily=Helvetica;fontSize=18;fontColor=default;" vertex="1" parent="1">
          <mxGeometry x="1078" y="1008" width="28" height="34" as="geometry" />
        </mxCell>
        <mxCell id="t6iT2jLAAF5-1r6rAyUo-41" value="1" style="text;html=1;align=center;verticalAlign=middle;resizable=0;points=[];autosize=1;strokeColor=none;fillColor=none;fontFamily=Helvetica;fontSize=18;fontColor=default;" vertex="1" parent="1">
          <mxGeometry x="966" y="743" width="28" height="34" as="geometry" />
        </mxCell>
        <mxCell id="t6iT2jLAAF5-1r6rAyUo-42" value="" style="edgeStyle=orthogonalEdgeStyle;rounded=0;orthogonalLoop=1;jettySize=auto;html=1;fontFamily=Helvetica;fontSize=18;fontColor=default;" edge="1" parent="1" target="t6iT2jLAAF5-1r6rAyUo-44">
          <mxGeometry relative="1" as="geometry">
            <mxPoint x="1276" y="401" as="sourcePoint" />
          </mxGeometry>
        </mxCell>
        <mxCell id="t6iT2jLAAF5-1r6rAyUo-43" value="" style="edgeStyle=orthogonalEdgeStyle;rounded=0;orthogonalLoop=1;jettySize=auto;html=1;fontFamily=Helvetica;fontSize=18;fontColor=default;" edge="1" parent="1" source="t6iT2jLAAF5-1r6rAyUo-44" target="t6iT2jLAAF5-1r6rAyUo-46">
          <mxGeometry relative="1" as="geometry" />
        </mxCell>
        <mxCell id="t6iT2jLAAF5-1r6rAyUo-44" value="y1" style="ellipse;whiteSpace=wrap;html=1;aspect=fixed;hachureGap=4;fillColor=#dae8fc;strokeColor=#6c8ebf;rounded=0;fontSize=18;" vertex="1" parent="1">
          <mxGeometry x="1236" y="448" width="80" height="80" as="geometry" />
        </mxCell>
        <mxCell id="t6iT2jLAAF5-1r6rAyUo-45" value="" style="edgeStyle=orthogonalEdgeStyle;rounded=0;orthogonalLoop=1;jettySize=auto;html=1;fontFamily=Helvetica;fontSize=18;fontColor=default;" edge="1" parent="1" source="t6iT2jLAAF5-1r6rAyUo-46" target="t6iT2jLAAF5-1r6rAyUo-47">
          <mxGeometry relative="1" as="geometry" />
        </mxCell>
        <mxCell id="t6iT2jLAAF5-1r6rAyUo-46" value="y2" style="ellipse;whiteSpace=wrap;html=1;aspect=fixed;hachureGap=4;fillColor=#dae8fc;strokeColor=#6c8ebf;rounded=0;fontSize=18;" vertex="1" parent="1">
          <mxGeometry x="1236" y="567" width="80" height="80" as="geometry" />
        </mxCell>
        <mxCell id="t6iT2jLAAF5-1r6rAyUo-47" value="y3" style="ellipse;whiteSpace=wrap;html=1;aspect=fixed;hachureGap=4;fillColor=#dae8fc;strokeColor=#6c8ebf;rounded=0;fontSize=18;" vertex="1" parent="1">
          <mxGeometry x="1236" y="682" width="80" height="80" as="geometry" />
        </mxCell>
        <mxCell id="t6iT2jLAAF5-1r6rAyUo-48" value="" style="edgeStyle=orthogonalEdgeStyle;rounded=0;orthogonalLoop=1;jettySize=auto;html=1;fontFamily=Helvetica;fontSize=18;fontColor=default;" edge="1" parent="1" target="t6iT2jLAAF5-1r6rAyUo-50">
          <mxGeometry relative="1" as="geometry">
            <mxPoint x="1276" y="762" as="sourcePoint" />
          </mxGeometry>
        </mxCell>
        <mxCell id="t6iT2jLAAF5-1r6rAyUo-49" value="" style="edgeStyle=orthogonalEdgeStyle;rounded=0;orthogonalLoop=1;jettySize=auto;html=1;fontFamily=Helvetica;fontSize=18;fontColor=default;" edge="1" parent="1" source="t6iT2jLAAF5-1r6rAyUo-50" target="t6iT2jLAAF5-1r6rAyUo-52">
          <mxGeometry relative="1" as="geometry" />
        </mxCell>
        <mxCell id="t6iT2jLAAF5-1r6rAyUo-50" value="y4" style="ellipse;whiteSpace=wrap;html=1;aspect=fixed;hachureGap=4;fillColor=#dae8fc;strokeColor=#6c8ebf;rounded=0;fontSize=18;" vertex="1" parent="1">
          <mxGeometry x="1236" y="809" width="80" height="80" as="geometry" />
        </mxCell>
        <mxCell id="t6iT2jLAAF5-1r6rAyUo-51" value="" style="edgeStyle=orthogonalEdgeStyle;rounded=0;orthogonalLoop=1;jettySize=auto;html=1;fontFamily=Helvetica;fontSize=18;fontColor=default;" edge="1" parent="1" source="t6iT2jLAAF5-1r6rAyUo-52" target="t6iT2jLAAF5-1r6rAyUo-54">
          <mxGeometry relative="1" as="geometry" />
        </mxCell>
        <mxCell id="t6iT2jLAAF5-1r6rAyUo-52" value="y5" style="ellipse;whiteSpace=wrap;html=1;aspect=fixed;hachureGap=4;fillColor=#dae8fc;strokeColor=#6c8ebf;rounded=0;fontSize=18;" vertex="1" parent="1">
          <mxGeometry x="1236" y="928" width="80" height="80" as="geometry" />
        </mxCell>
        <mxCell id="t6iT2jLAAF5-1r6rAyUo-53" style="edgeStyle=orthogonalEdgeStyle;rounded=0;orthogonalLoop=1;jettySize=auto;html=1;entryX=0;entryY=0.5;entryDx=0;entryDy=0;fontFamily=Helvetica;fontSize=18;fontColor=default;" edge="1" parent="1" source="t6iT2jLAAF5-1r6rAyUo-54" target="t6iT2jLAAF5-1r6rAyUo-44">
          <mxGeometry relative="1" as="geometry">
            <Array as="points">
              <mxPoint x="1209" y="1083" />
              <mxPoint x="1209" y="488" />
            </Array>
          </mxGeometry>
        </mxCell>
        <mxCell id="t6iT2jLAAF5-1r6rAyUo-54" value="y6" style="ellipse;whiteSpace=wrap;html=1;aspect=fixed;hachureGap=4;fillColor=#dae8fc;strokeColor=#6c8ebf;rounded=0;fontSize=18;" vertex="1" parent="1">
          <mxGeometry x="1236" y="1043" width="80" height="80" as="geometry" />
        </mxCell>
        <mxCell id="t6iT2jLAAF5-1r6rAyUo-55" value="1" style="text;html=1;align=center;verticalAlign=middle;resizable=0;points=[];autosize=1;strokeColor=none;fillColor=none;fontFamily=Helvetica;fontSize=18;fontColor=default;" vertex="1" parent="1">
          <mxGeometry x="1239" y="407" width="28" height="34" as="geometry" />
        </mxCell>
        <mxCell id="t6iT2jLAAF5-1r6rAyUo-56" value="1" style="text;html=1;align=center;verticalAlign=middle;resizable=0;points=[];autosize=1;strokeColor=none;fillColor=none;fontFamily=Helvetica;fontSize=18;fontColor=default;" vertex="1" parent="1">
          <mxGeometry x="1239" y="533" width="28" height="34" as="geometry" />
        </mxCell>
        <mxCell id="t6iT2jLAAF5-1r6rAyUo-57" value="1" style="text;html=1;align=center;verticalAlign=middle;resizable=0;points=[];autosize=1;strokeColor=none;fillColor=none;fontFamily=Helvetica;fontSize=18;fontColor=default;" vertex="1" parent="1">
          <mxGeometry x="1234" y="644" width="28" height="34" as="geometry" />
        </mxCell>
        <mxCell id="t6iT2jLAAF5-1r6rAyUo-58" value="1" style="text;html=1;align=center;verticalAlign=middle;resizable=0;points=[];autosize=1;strokeColor=none;fillColor=none;fontFamily=Helvetica;fontSize=18;fontColor=default;" vertex="1" parent="1">
          <mxGeometry x="1234" y="769" width="28" height="34" as="geometry" />
        </mxCell>
        <mxCell id="t6iT2jLAAF5-1r6rAyUo-59" value="1" style="text;html=1;align=center;verticalAlign=middle;resizable=0;points=[];autosize=1;strokeColor=none;fillColor=none;fontFamily=Helvetica;fontSize=18;fontColor=default;" vertex="1" parent="1">
          <mxGeometry x="1234" y="894" width="28" height="34" as="geometry" />
        </mxCell>
        <mxCell id="t6iT2jLAAF5-1r6rAyUo-60" value="1" style="text;html=1;align=center;verticalAlign=middle;resizable=0;points=[];autosize=1;strokeColor=none;fillColor=none;fontFamily=Helvetica;fontSize=18;fontColor=default;" vertex="1" parent="1">
          <mxGeometry x="1236" y="1008" width="28" height="34" as="geometry" />
        </mxCell>
        <mxCell id="t6iT2jLAAF5-1r6rAyUo-61" value="1" style="text;html=1;align=center;verticalAlign=middle;resizable=0;points=[];autosize=1;strokeColor=none;fillColor=none;fontFamily=Helvetica;fontSize=18;fontColor=default;" vertex="1" parent="1">
          <mxGeometry x="1176" y="752" width="28" height="34" as="geometry" />
        </mxCell>
        <mxCell id="t6iT2jLAAF5-1r6rAyUo-62" value="" style="edgeStyle=orthogonalEdgeStyle;rounded=0;orthogonalLoop=1;jettySize=auto;html=1;fontFamily=Helvetica;fontSize=18;fontColor=default;" edge="1" parent="1" target="t6iT2jLAAF5-1r6rAyUo-64">
          <mxGeometry relative="1" as="geometry">
            <mxPoint x="1438" y="407" as="sourcePoint" />
          </mxGeometry>
        </mxCell>
        <mxCell id="t6iT2jLAAF5-1r6rAyUo-63" value="" style="edgeStyle=orthogonalEdgeStyle;rounded=0;orthogonalLoop=1;jettySize=auto;html=1;fontFamily=Helvetica;fontSize=18;fontColor=default;" edge="1" parent="1" source="t6iT2jLAAF5-1r6rAyUo-64" target="t6iT2jLAAF5-1r6rAyUo-66">
          <mxGeometry relative="1" as="geometry" />
        </mxCell>
        <mxCell id="t6iT2jLAAF5-1r6rAyUo-64" value="y1" style="ellipse;whiteSpace=wrap;html=1;aspect=fixed;hachureGap=4;fillColor=#dae8fc;strokeColor=#6c8ebf;rounded=0;fontSize=18;" vertex="1" parent="1">
          <mxGeometry x="1398" y="454" width="80" height="80" as="geometry" />
        </mxCell>
        <mxCell id="t6iT2jLAAF5-1r6rAyUo-65" value="" style="edgeStyle=orthogonalEdgeStyle;rounded=0;orthogonalLoop=1;jettySize=auto;html=1;fontFamily=Helvetica;fontSize=18;fontColor=default;" edge="1" parent="1" source="t6iT2jLAAF5-1r6rAyUo-66" target="t6iT2jLAAF5-1r6rAyUo-67">
          <mxGeometry relative="1" as="geometry" />
        </mxCell>
        <mxCell id="t6iT2jLAAF5-1r6rAyUo-66" value="y2" style="ellipse;whiteSpace=wrap;html=1;aspect=fixed;hachureGap=4;fillColor=#dae8fc;strokeColor=#6c8ebf;rounded=0;fontSize=18;" vertex="1" parent="1">
          <mxGeometry x="1398" y="573" width="80" height="80" as="geometry" />
        </mxCell>
        <mxCell id="t6iT2jLAAF5-1r6rAyUo-67" value="y3" style="ellipse;whiteSpace=wrap;html=1;aspect=fixed;hachureGap=4;fillColor=#dae8fc;strokeColor=#6c8ebf;rounded=0;fontSize=18;" vertex="1" parent="1">
          <mxGeometry x="1398" y="688" width="80" height="80" as="geometry" />
        </mxCell>
        <mxCell id="t6iT2jLAAF5-1r6rAyUo-68" value="" style="edgeStyle=orthogonalEdgeStyle;rounded=0;orthogonalLoop=1;jettySize=auto;html=1;fontFamily=Helvetica;fontSize=18;fontColor=default;" edge="1" parent="1" target="t6iT2jLAAF5-1r6rAyUo-70">
          <mxGeometry relative="1" as="geometry">
            <mxPoint x="1438" y="768" as="sourcePoint" />
          </mxGeometry>
        </mxCell>
        <mxCell id="t6iT2jLAAF5-1r6rAyUo-69" value="" style="edgeStyle=orthogonalEdgeStyle;rounded=0;orthogonalLoop=1;jettySize=auto;html=1;fontFamily=Helvetica;fontSize=18;fontColor=default;" edge="1" parent="1" source="t6iT2jLAAF5-1r6rAyUo-70" target="t6iT2jLAAF5-1r6rAyUo-72">
          <mxGeometry relative="1" as="geometry" />
        </mxCell>
        <mxCell id="t6iT2jLAAF5-1r6rAyUo-70" value="y4" style="ellipse;whiteSpace=wrap;html=1;aspect=fixed;hachureGap=4;fillColor=#dae8fc;strokeColor=#6c8ebf;rounded=0;fontSize=18;" vertex="1" parent="1">
          <mxGeometry x="1398" y="815" width="80" height="80" as="geometry" />
        </mxCell>
        <mxCell id="t6iT2jLAAF5-1r6rAyUo-71" value="" style="edgeStyle=orthogonalEdgeStyle;rounded=0;orthogonalLoop=1;jettySize=auto;html=1;fontFamily=Helvetica;fontSize=18;fontColor=default;" edge="1" parent="1" source="t6iT2jLAAF5-1r6rAyUo-72" target="t6iT2jLAAF5-1r6rAyUo-74">
          <mxGeometry relative="1" as="geometry" />
        </mxCell>
        <mxCell id="t6iT2jLAAF5-1r6rAyUo-72" value="y5" style="ellipse;whiteSpace=wrap;html=1;aspect=fixed;hachureGap=4;fillColor=#dae8fc;strokeColor=#6c8ebf;rounded=0;fontSize=18;" vertex="1" parent="1">
          <mxGeometry x="1398" y="934" width="80" height="80" as="geometry" />
        </mxCell>
        <mxCell id="t6iT2jLAAF5-1r6rAyUo-73" style="edgeStyle=orthogonalEdgeStyle;rounded=0;orthogonalLoop=1;jettySize=auto;html=1;entryX=0;entryY=0.5;entryDx=0;entryDy=0;fontFamily=Helvetica;fontSize=18;fontColor=default;" edge="1" parent="1" source="t6iT2jLAAF5-1r6rAyUo-74" target="t6iT2jLAAF5-1r6rAyUo-64">
          <mxGeometry relative="1" as="geometry">
            <Array as="points">
              <mxPoint x="1371" y="1089" />
              <mxPoint x="1371" y="494" />
            </Array>
          </mxGeometry>
        </mxCell>
        <mxCell id="t6iT2jLAAF5-1r6rAyUo-74" value="y6" style="ellipse;whiteSpace=wrap;html=1;aspect=fixed;hachureGap=4;fillColor=#dae8fc;strokeColor=#6c8ebf;rounded=0;fontSize=18;" vertex="1" parent="1">
          <mxGeometry x="1398" y="1049" width="80" height="80" as="geometry" />
        </mxCell>
        <mxCell id="t6iT2jLAAF5-1r6rAyUo-75" value="1" style="text;html=1;align=center;verticalAlign=middle;resizable=0;points=[];autosize=1;strokeColor=none;fillColor=none;fontFamily=Helvetica;fontSize=18;fontColor=default;" vertex="1" parent="1">
          <mxGeometry x="1401" y="413" width="28" height="34" as="geometry" />
        </mxCell>
        <mxCell id="t6iT2jLAAF5-1r6rAyUo-76" value="1" style="text;html=1;align=center;verticalAlign=middle;resizable=0;points=[];autosize=1;strokeColor=none;fillColor=none;fontFamily=Helvetica;fontSize=18;fontColor=default;" vertex="1" parent="1">
          <mxGeometry x="1401" y="539" width="28" height="34" as="geometry" />
        </mxCell>
        <mxCell id="t6iT2jLAAF5-1r6rAyUo-77" value="1" style="text;html=1;align=center;verticalAlign=middle;resizable=0;points=[];autosize=1;strokeColor=none;fillColor=none;fontFamily=Helvetica;fontSize=18;fontColor=default;" vertex="1" parent="1">
          <mxGeometry x="1396" y="650" width="28" height="34" as="geometry" />
        </mxCell>
        <mxCell id="t6iT2jLAAF5-1r6rAyUo-78" value="1" style="text;html=1;align=center;verticalAlign=middle;resizable=0;points=[];autosize=1;strokeColor=none;fillColor=none;fontFamily=Helvetica;fontSize=18;fontColor=default;" vertex="1" parent="1">
          <mxGeometry x="1396" y="775" width="28" height="34" as="geometry" />
        </mxCell>
        <mxCell id="t6iT2jLAAF5-1r6rAyUo-79" value="1" style="text;html=1;align=center;verticalAlign=middle;resizable=0;points=[];autosize=1;strokeColor=none;fillColor=none;fontFamily=Helvetica;fontSize=18;fontColor=default;" vertex="1" parent="1">
          <mxGeometry x="1396" y="900" width="28" height="34" as="geometry" />
        </mxCell>
        <mxCell id="t6iT2jLAAF5-1r6rAyUo-80" value="1" style="text;html=1;align=center;verticalAlign=middle;resizable=0;points=[];autosize=1;strokeColor=none;fillColor=none;fontFamily=Helvetica;fontSize=18;fontColor=default;" vertex="1" parent="1">
          <mxGeometry x="1398" y="1014" width="28" height="34" as="geometry" />
        </mxCell>
        <mxCell id="t6iT2jLAAF5-1r6rAyUo-81" value="1" style="text;html=1;align=center;verticalAlign=middle;resizable=0;points=[];autosize=1;strokeColor=none;fillColor=none;fontFamily=Helvetica;fontSize=18;fontColor=default;" vertex="1" parent="1">
          <mxGeometry x="1338" y="758" width="28" height="34" as="geometry" />
        </mxCell>
        <mxCell id="t6iT2jLAAF5-1r6rAyUo-82" value="" style="edgeStyle=orthogonalEdgeStyle;rounded=0;orthogonalLoop=1;jettySize=auto;html=1;fontFamily=Helvetica;fontSize=18;fontColor=default;" edge="1" parent="1" target="t6iT2jLAAF5-1r6rAyUo-84">
          <mxGeometry relative="1" as="geometry">
            <mxPoint x="1604" y="401" as="sourcePoint" />
          </mxGeometry>
        </mxCell>
        <mxCell id="t6iT2jLAAF5-1r6rAyUo-83" value="" style="edgeStyle=orthogonalEdgeStyle;rounded=0;orthogonalLoop=1;jettySize=auto;html=1;fontFamily=Helvetica;fontSize=18;fontColor=default;" edge="1" parent="1" source="t6iT2jLAAF5-1r6rAyUo-84" target="t6iT2jLAAF5-1r6rAyUo-86">
          <mxGeometry relative="1" as="geometry" />
        </mxCell>
        <mxCell id="t6iT2jLAAF5-1r6rAyUo-84" value="y1" style="ellipse;whiteSpace=wrap;html=1;aspect=fixed;hachureGap=4;fillColor=#dae8fc;strokeColor=#6c8ebf;rounded=0;fontSize=18;" vertex="1" parent="1">
          <mxGeometry x="1564" y="448" width="80" height="80" as="geometry" />
        </mxCell>
        <mxCell id="t6iT2jLAAF5-1r6rAyUo-85" value="" style="edgeStyle=orthogonalEdgeStyle;rounded=0;orthogonalLoop=1;jettySize=auto;html=1;fontFamily=Helvetica;fontSize=18;fontColor=default;" edge="1" parent="1" source="t6iT2jLAAF5-1r6rAyUo-86" target="t6iT2jLAAF5-1r6rAyUo-87">
          <mxGeometry relative="1" as="geometry" />
        </mxCell>
        <mxCell id="t6iT2jLAAF5-1r6rAyUo-86" value="y2" style="ellipse;whiteSpace=wrap;html=1;aspect=fixed;hachureGap=4;fillColor=#dae8fc;strokeColor=#6c8ebf;rounded=0;fontSize=18;" vertex="1" parent="1">
          <mxGeometry x="1564" y="567" width="80" height="80" as="geometry" />
        </mxCell>
        <mxCell id="t6iT2jLAAF5-1r6rAyUo-87" value="y3" style="ellipse;whiteSpace=wrap;html=1;aspect=fixed;hachureGap=4;fillColor=#dae8fc;strokeColor=#6c8ebf;rounded=0;fontSize=18;" vertex="1" parent="1">
          <mxGeometry x="1564" y="682" width="80" height="80" as="geometry" />
        </mxCell>
        <mxCell id="t6iT2jLAAF5-1r6rAyUo-88" value="" style="edgeStyle=orthogonalEdgeStyle;rounded=0;orthogonalLoop=1;jettySize=auto;html=1;fontFamily=Helvetica;fontSize=18;fontColor=default;" edge="1" parent="1" target="t6iT2jLAAF5-1r6rAyUo-90">
          <mxGeometry relative="1" as="geometry">
            <mxPoint x="1604" y="762" as="sourcePoint" />
          </mxGeometry>
        </mxCell>
        <mxCell id="t6iT2jLAAF5-1r6rAyUo-89" value="" style="edgeStyle=orthogonalEdgeStyle;rounded=0;orthogonalLoop=1;jettySize=auto;html=1;fontFamily=Helvetica;fontSize=18;fontColor=default;" edge="1" parent="1" source="t6iT2jLAAF5-1r6rAyUo-90" target="t6iT2jLAAF5-1r6rAyUo-92">
          <mxGeometry relative="1" as="geometry" />
        </mxCell>
        <mxCell id="t6iT2jLAAF5-1r6rAyUo-90" value="y4" style="ellipse;whiteSpace=wrap;html=1;aspect=fixed;hachureGap=4;fillColor=#dae8fc;strokeColor=#6c8ebf;rounded=0;fontSize=18;" vertex="1" parent="1">
          <mxGeometry x="1564" y="809" width="80" height="80" as="geometry" />
        </mxCell>
        <mxCell id="t6iT2jLAAF5-1r6rAyUo-91" value="" style="edgeStyle=orthogonalEdgeStyle;rounded=0;orthogonalLoop=1;jettySize=auto;html=1;fontFamily=Helvetica;fontSize=18;fontColor=default;" edge="1" parent="1" source="t6iT2jLAAF5-1r6rAyUo-92" target="t6iT2jLAAF5-1r6rAyUo-94">
          <mxGeometry relative="1" as="geometry" />
        </mxCell>
        <mxCell id="t6iT2jLAAF5-1r6rAyUo-92" value="y5" style="ellipse;whiteSpace=wrap;html=1;aspect=fixed;hachureGap=4;fillColor=#dae8fc;strokeColor=#6c8ebf;rounded=0;fontSize=18;" vertex="1" parent="1">
          <mxGeometry x="1564" y="928" width="80" height="80" as="geometry" />
        </mxCell>
        <mxCell id="t6iT2jLAAF5-1r6rAyUo-93" style="edgeStyle=orthogonalEdgeStyle;rounded=0;orthogonalLoop=1;jettySize=auto;html=1;entryX=0;entryY=0.5;entryDx=0;entryDy=0;fontFamily=Helvetica;fontSize=18;fontColor=default;" edge="1" parent="1" source="t6iT2jLAAF5-1r6rAyUo-94" target="t6iT2jLAAF5-1r6rAyUo-84">
          <mxGeometry relative="1" as="geometry">
            <Array as="points">
              <mxPoint x="1537" y="1083" />
              <mxPoint x="1537" y="488" />
            </Array>
          </mxGeometry>
        </mxCell>
        <mxCell id="t6iT2jLAAF5-1r6rAyUo-94" value="y6" style="ellipse;whiteSpace=wrap;html=1;aspect=fixed;hachureGap=4;fillColor=#dae8fc;strokeColor=#6c8ebf;rounded=0;fontSize=18;" vertex="1" parent="1">
          <mxGeometry x="1564" y="1043" width="80" height="80" as="geometry" />
        </mxCell>
        <mxCell id="t6iT2jLAAF5-1r6rAyUo-95" value="1" style="text;html=1;align=center;verticalAlign=middle;resizable=0;points=[];autosize=1;strokeColor=none;fillColor=none;fontFamily=Helvetica;fontSize=18;fontColor=default;" vertex="1" parent="1">
          <mxGeometry x="1567" y="407" width="28" height="34" as="geometry" />
        </mxCell>
        <mxCell id="t6iT2jLAAF5-1r6rAyUo-96" value="1" style="text;html=1;align=center;verticalAlign=middle;resizable=0;points=[];autosize=1;strokeColor=none;fillColor=none;fontFamily=Helvetica;fontSize=18;fontColor=default;" vertex="1" parent="1">
          <mxGeometry x="1567" y="533" width="28" height="34" as="geometry" />
        </mxCell>
        <mxCell id="t6iT2jLAAF5-1r6rAyUo-97" value="1" style="text;html=1;align=center;verticalAlign=middle;resizable=0;points=[];autosize=1;strokeColor=none;fillColor=none;fontFamily=Helvetica;fontSize=18;fontColor=default;" vertex="1" parent="1">
          <mxGeometry x="1562" y="644" width="28" height="34" as="geometry" />
        </mxCell>
        <mxCell id="t6iT2jLAAF5-1r6rAyUo-98" value="1" style="text;html=1;align=center;verticalAlign=middle;resizable=0;points=[];autosize=1;strokeColor=none;fillColor=none;fontFamily=Helvetica;fontSize=18;fontColor=default;" vertex="1" parent="1">
          <mxGeometry x="1562" y="769" width="28" height="34" as="geometry" />
        </mxCell>
        <mxCell id="t6iT2jLAAF5-1r6rAyUo-99" value="1" style="text;html=1;align=center;verticalAlign=middle;resizable=0;points=[];autosize=1;strokeColor=none;fillColor=none;fontFamily=Helvetica;fontSize=18;fontColor=default;" vertex="1" parent="1">
          <mxGeometry x="1562" y="894" width="28" height="34" as="geometry" />
        </mxCell>
        <mxCell id="t6iT2jLAAF5-1r6rAyUo-100" value="1" style="text;html=1;align=center;verticalAlign=middle;resizable=0;points=[];autosize=1;strokeColor=none;fillColor=none;fontFamily=Helvetica;fontSize=18;fontColor=default;" vertex="1" parent="1">
          <mxGeometry x="1564" y="1008" width="28" height="34" as="geometry" />
        </mxCell>
        <mxCell id="t6iT2jLAAF5-1r6rAyUo-101" value="1" style="text;html=1;align=center;verticalAlign=middle;resizable=0;points=[];autosize=1;strokeColor=none;fillColor=none;fontFamily=Helvetica;fontSize=18;fontColor=default;" vertex="1" parent="1">
          <mxGeometry x="1504" y="752" width="28" height="34" as="geometry" />
        </mxCell>
        <mxCell id="t6iT2jLAAF5-1r6rAyUo-102" value="" style="edgeStyle=orthogonalEdgeStyle;rounded=0;orthogonalLoop=1;jettySize=auto;html=1;fontFamily=Helvetica;fontSize=18;fontColor=default;" edge="1" parent="1" target="t6iT2jLAAF5-1r6rAyUo-104">
          <mxGeometry relative="1" as="geometry">
            <mxPoint x="1756" y="401" as="sourcePoint" />
          </mxGeometry>
        </mxCell>
        <mxCell id="t6iT2jLAAF5-1r6rAyUo-103" value="" style="edgeStyle=orthogonalEdgeStyle;rounded=0;orthogonalLoop=1;jettySize=auto;html=1;fontFamily=Helvetica;fontSize=18;fontColor=default;" edge="1" parent="1" source="t6iT2jLAAF5-1r6rAyUo-104" target="t6iT2jLAAF5-1r6rAyUo-106">
          <mxGeometry relative="1" as="geometry" />
        </mxCell>
        <mxCell id="t6iT2jLAAF5-1r6rAyUo-104" value="y1" style="ellipse;whiteSpace=wrap;html=1;aspect=fixed;hachureGap=4;fillColor=#dae8fc;strokeColor=#6c8ebf;rounded=0;fontSize=18;" vertex="1" parent="1">
          <mxGeometry x="1716" y="448" width="80" height="80" as="geometry" />
        </mxCell>
        <mxCell id="t6iT2jLAAF5-1r6rAyUo-105" value="" style="edgeStyle=orthogonalEdgeStyle;rounded=0;orthogonalLoop=1;jettySize=auto;html=1;fontFamily=Helvetica;fontSize=18;fontColor=default;" edge="1" parent="1" source="t6iT2jLAAF5-1r6rAyUo-106" target="t6iT2jLAAF5-1r6rAyUo-107">
          <mxGeometry relative="1" as="geometry" />
        </mxCell>
        <mxCell id="t6iT2jLAAF5-1r6rAyUo-106" value="y2" style="ellipse;whiteSpace=wrap;html=1;aspect=fixed;hachureGap=4;fillColor=#dae8fc;strokeColor=#6c8ebf;rounded=0;fontSize=18;" vertex="1" parent="1">
          <mxGeometry x="1716" y="567" width="80" height="80" as="geometry" />
        </mxCell>
        <mxCell id="t6iT2jLAAF5-1r6rAyUo-107" value="y3" style="ellipse;whiteSpace=wrap;html=1;aspect=fixed;hachureGap=4;fillColor=#dae8fc;strokeColor=#6c8ebf;rounded=0;fontSize=18;" vertex="1" parent="1">
          <mxGeometry x="1716" y="682" width="80" height="80" as="geometry" />
        </mxCell>
        <mxCell id="t6iT2jLAAF5-1r6rAyUo-108" value="" style="edgeStyle=orthogonalEdgeStyle;rounded=0;orthogonalLoop=1;jettySize=auto;html=1;fontFamily=Helvetica;fontSize=18;fontColor=default;" edge="1" parent="1" target="t6iT2jLAAF5-1r6rAyUo-110">
          <mxGeometry relative="1" as="geometry">
            <mxPoint x="1756" y="762" as="sourcePoint" />
          </mxGeometry>
        </mxCell>
        <mxCell id="t6iT2jLAAF5-1r6rAyUo-109" value="" style="edgeStyle=orthogonalEdgeStyle;rounded=0;orthogonalLoop=1;jettySize=auto;html=1;fontFamily=Helvetica;fontSize=18;fontColor=default;" edge="1" parent="1" source="t6iT2jLAAF5-1r6rAyUo-110" target="t6iT2jLAAF5-1r6rAyUo-112">
          <mxGeometry relative="1" as="geometry" />
        </mxCell>
        <mxCell id="t6iT2jLAAF5-1r6rAyUo-110" value="y4" style="ellipse;whiteSpace=wrap;html=1;aspect=fixed;hachureGap=4;fillColor=#dae8fc;strokeColor=#6c8ebf;rounded=0;fontSize=18;" vertex="1" parent="1">
          <mxGeometry x="1716" y="809" width="80" height="80" as="geometry" />
        </mxCell>
        <mxCell id="t6iT2jLAAF5-1r6rAyUo-111" value="" style="edgeStyle=orthogonalEdgeStyle;rounded=0;orthogonalLoop=1;jettySize=auto;html=1;fontFamily=Helvetica;fontSize=18;fontColor=default;" edge="1" parent="1" source="t6iT2jLAAF5-1r6rAyUo-112" target="t6iT2jLAAF5-1r6rAyUo-114">
          <mxGeometry relative="1" as="geometry" />
        </mxCell>
        <mxCell id="t6iT2jLAAF5-1r6rAyUo-112" value="y5" style="ellipse;whiteSpace=wrap;html=1;aspect=fixed;hachureGap=4;fillColor=#dae8fc;strokeColor=#6c8ebf;rounded=0;fontSize=18;" vertex="1" parent="1">
          <mxGeometry x="1716" y="928" width="80" height="80" as="geometry" />
        </mxCell>
        <mxCell id="t6iT2jLAAF5-1r6rAyUo-113" style="edgeStyle=orthogonalEdgeStyle;rounded=0;orthogonalLoop=1;jettySize=auto;html=1;entryX=0;entryY=0.5;entryDx=0;entryDy=0;fontFamily=Helvetica;fontSize=18;fontColor=default;" edge="1" parent="1" source="t6iT2jLAAF5-1r6rAyUo-114" target="t6iT2jLAAF5-1r6rAyUo-104">
          <mxGeometry relative="1" as="geometry">
            <Array as="points">
              <mxPoint x="1689" y="1083" />
              <mxPoint x="1689" y="488" />
            </Array>
          </mxGeometry>
        </mxCell>
        <mxCell id="t6iT2jLAAF5-1r6rAyUo-114" value="y6" style="ellipse;whiteSpace=wrap;html=1;aspect=fixed;hachureGap=4;fillColor=#dae8fc;strokeColor=#6c8ebf;rounded=0;fontSize=18;" vertex="1" parent="1">
          <mxGeometry x="1716" y="1043" width="80" height="80" as="geometry" />
        </mxCell>
        <mxCell id="t6iT2jLAAF5-1r6rAyUo-115" value="1" style="text;html=1;align=center;verticalAlign=middle;resizable=0;points=[];autosize=1;strokeColor=none;fillColor=none;fontFamily=Helvetica;fontSize=18;fontColor=default;" vertex="1" parent="1">
          <mxGeometry x="1719" y="407" width="28" height="34" as="geometry" />
        </mxCell>
        <mxCell id="t6iT2jLAAF5-1r6rAyUo-116" value="1" style="text;html=1;align=center;verticalAlign=middle;resizable=0;points=[];autosize=1;strokeColor=none;fillColor=none;fontFamily=Helvetica;fontSize=18;fontColor=default;" vertex="1" parent="1">
          <mxGeometry x="1719" y="533" width="28" height="34" as="geometry" />
        </mxCell>
        <mxCell id="t6iT2jLAAF5-1r6rAyUo-117" value="1" style="text;html=1;align=center;verticalAlign=middle;resizable=0;points=[];autosize=1;strokeColor=none;fillColor=none;fontFamily=Helvetica;fontSize=18;fontColor=default;" vertex="1" parent="1">
          <mxGeometry x="1714" y="644" width="28" height="34" as="geometry" />
        </mxCell>
        <mxCell id="t6iT2jLAAF5-1r6rAyUo-118" value="1" style="text;html=1;align=center;verticalAlign=middle;resizable=0;points=[];autosize=1;strokeColor=none;fillColor=none;fontFamily=Helvetica;fontSize=18;fontColor=default;" vertex="1" parent="1">
          <mxGeometry x="1714" y="769" width="28" height="34" as="geometry" />
        </mxCell>
        <mxCell id="t6iT2jLAAF5-1r6rAyUo-119" value="1" style="text;html=1;align=center;verticalAlign=middle;resizable=0;points=[];autosize=1;strokeColor=none;fillColor=none;fontFamily=Helvetica;fontSize=18;fontColor=default;" vertex="1" parent="1">
          <mxGeometry x="1714" y="894" width="28" height="34" as="geometry" />
        </mxCell>
        <mxCell id="t6iT2jLAAF5-1r6rAyUo-120" value="1" style="text;html=1;align=center;verticalAlign=middle;resizable=0;points=[];autosize=1;strokeColor=none;fillColor=none;fontFamily=Helvetica;fontSize=18;fontColor=default;" vertex="1" parent="1">
          <mxGeometry x="1716" y="1008" width="28" height="34" as="geometry" />
        </mxCell>
        <mxCell id="t6iT2jLAAF5-1r6rAyUo-121" value="1" style="text;html=1;align=center;verticalAlign=middle;resizable=0;points=[];autosize=1;strokeColor=none;fillColor=none;fontFamily=Helvetica;fontSize=18;fontColor=default;" vertex="1" parent="1">
          <mxGeometry x="1656" y="752" width="28" height="34" as="geometry" />
        </mxCell>
        <mxCell id="t6iT2jLAAF5-1r6rAyUo-122" value="" style="edgeStyle=orthogonalEdgeStyle;rounded=0;orthogonalLoop=1;jettySize=auto;html=1;fontFamily=Helvetica;fontSize=18;fontColor=default;" edge="1" parent="1" target="t6iT2jLAAF5-1r6rAyUo-124">
          <mxGeometry relative="1" as="geometry">
            <mxPoint x="1924" y="401" as="sourcePoint" />
          </mxGeometry>
        </mxCell>
        <mxCell id="t6iT2jLAAF5-1r6rAyUo-123" value="" style="edgeStyle=orthogonalEdgeStyle;rounded=0;orthogonalLoop=1;jettySize=auto;html=1;fontFamily=Helvetica;fontSize=18;fontColor=default;" edge="1" parent="1" source="t6iT2jLAAF5-1r6rAyUo-124" target="t6iT2jLAAF5-1r6rAyUo-126">
          <mxGeometry relative="1" as="geometry" />
        </mxCell>
        <mxCell id="t6iT2jLAAF5-1r6rAyUo-124" value="y1" style="ellipse;whiteSpace=wrap;html=1;aspect=fixed;hachureGap=4;fillColor=#dae8fc;strokeColor=#6c8ebf;rounded=0;fontSize=18;" vertex="1" parent="1">
          <mxGeometry x="1884" y="448" width="80" height="80" as="geometry" />
        </mxCell>
        <mxCell id="t6iT2jLAAF5-1r6rAyUo-125" value="" style="edgeStyle=orthogonalEdgeStyle;rounded=0;orthogonalLoop=1;jettySize=auto;html=1;fontFamily=Helvetica;fontSize=18;fontColor=default;" edge="1" parent="1" source="t6iT2jLAAF5-1r6rAyUo-126" target="t6iT2jLAAF5-1r6rAyUo-127">
          <mxGeometry relative="1" as="geometry" />
        </mxCell>
        <mxCell id="t6iT2jLAAF5-1r6rAyUo-126" value="y2" style="ellipse;whiteSpace=wrap;html=1;aspect=fixed;hachureGap=4;fillColor=#dae8fc;strokeColor=#6c8ebf;rounded=0;fontSize=18;" vertex="1" parent="1">
          <mxGeometry x="1884" y="567" width="80" height="80" as="geometry" />
        </mxCell>
        <mxCell id="t6iT2jLAAF5-1r6rAyUo-127" value="y3" style="ellipse;whiteSpace=wrap;html=1;aspect=fixed;hachureGap=4;fillColor=#dae8fc;strokeColor=#6c8ebf;rounded=0;fontSize=18;" vertex="1" parent="1">
          <mxGeometry x="1884" y="682" width="80" height="80" as="geometry" />
        </mxCell>
        <mxCell id="t6iT2jLAAF5-1r6rAyUo-128" value="" style="edgeStyle=orthogonalEdgeStyle;rounded=0;orthogonalLoop=1;jettySize=auto;html=1;fontFamily=Helvetica;fontSize=18;fontColor=default;" edge="1" parent="1" target="t6iT2jLAAF5-1r6rAyUo-130">
          <mxGeometry relative="1" as="geometry">
            <mxPoint x="1924" y="762" as="sourcePoint" />
          </mxGeometry>
        </mxCell>
        <mxCell id="t6iT2jLAAF5-1r6rAyUo-129" value="" style="edgeStyle=orthogonalEdgeStyle;rounded=0;orthogonalLoop=1;jettySize=auto;html=1;fontFamily=Helvetica;fontSize=18;fontColor=default;" edge="1" parent="1" source="t6iT2jLAAF5-1r6rAyUo-130" target="t6iT2jLAAF5-1r6rAyUo-132">
          <mxGeometry relative="1" as="geometry" />
        </mxCell>
        <mxCell id="t6iT2jLAAF5-1r6rAyUo-130" value="y4" style="ellipse;whiteSpace=wrap;html=1;aspect=fixed;hachureGap=4;fillColor=#dae8fc;strokeColor=#6c8ebf;rounded=0;fontSize=18;" vertex="1" parent="1">
          <mxGeometry x="1884" y="809" width="80" height="80" as="geometry" />
        </mxCell>
        <mxCell id="t6iT2jLAAF5-1r6rAyUo-131" value="" style="edgeStyle=orthogonalEdgeStyle;rounded=0;orthogonalLoop=1;jettySize=auto;html=1;fontFamily=Helvetica;fontSize=18;fontColor=default;" edge="1" parent="1" source="t6iT2jLAAF5-1r6rAyUo-132" target="t6iT2jLAAF5-1r6rAyUo-134">
          <mxGeometry relative="1" as="geometry" />
        </mxCell>
        <mxCell id="t6iT2jLAAF5-1r6rAyUo-132" value="y5" style="ellipse;whiteSpace=wrap;html=1;aspect=fixed;hachureGap=4;fillColor=#dae8fc;strokeColor=#6c8ebf;rounded=0;fontSize=18;" vertex="1" parent="1">
          <mxGeometry x="1884" y="928" width="80" height="80" as="geometry" />
        </mxCell>
        <mxCell id="t6iT2jLAAF5-1r6rAyUo-133" style="edgeStyle=orthogonalEdgeStyle;rounded=0;orthogonalLoop=1;jettySize=auto;html=1;entryX=0;entryY=0.5;entryDx=0;entryDy=0;fontFamily=Helvetica;fontSize=18;fontColor=default;" edge="1" parent="1" source="t6iT2jLAAF5-1r6rAyUo-134" target="t6iT2jLAAF5-1r6rAyUo-124">
          <mxGeometry relative="1" as="geometry">
            <Array as="points">
              <mxPoint x="1857" y="1083" />
              <mxPoint x="1857" y="488" />
            </Array>
          </mxGeometry>
        </mxCell>
        <mxCell id="t6iT2jLAAF5-1r6rAyUo-134" value="y6" style="ellipse;whiteSpace=wrap;html=1;aspect=fixed;hachureGap=4;fillColor=#dae8fc;strokeColor=#6c8ebf;rounded=0;fontSize=18;" vertex="1" parent="1">
          <mxGeometry x="1884" y="1043" width="80" height="80" as="geometry" />
        </mxCell>
        <mxCell id="t6iT2jLAAF5-1r6rAyUo-135" value="1" style="text;html=1;align=center;verticalAlign=middle;resizable=0;points=[];autosize=1;strokeColor=none;fillColor=none;fontFamily=Helvetica;fontSize=18;fontColor=default;" vertex="1" parent="1">
          <mxGeometry x="1887" y="407" width="28" height="34" as="geometry" />
        </mxCell>
        <mxCell id="t6iT2jLAAF5-1r6rAyUo-136" value="1" style="text;html=1;align=center;verticalAlign=middle;resizable=0;points=[];autosize=1;strokeColor=none;fillColor=none;fontFamily=Helvetica;fontSize=18;fontColor=default;" vertex="1" parent="1">
          <mxGeometry x="1887" y="533" width="28" height="34" as="geometry" />
        </mxCell>
        <mxCell id="t6iT2jLAAF5-1r6rAyUo-137" value="1" style="text;html=1;align=center;verticalAlign=middle;resizable=0;points=[];autosize=1;strokeColor=none;fillColor=none;fontFamily=Helvetica;fontSize=18;fontColor=default;" vertex="1" parent="1">
          <mxGeometry x="1882" y="644" width="28" height="34" as="geometry" />
        </mxCell>
        <mxCell id="t6iT2jLAAF5-1r6rAyUo-138" value="1" style="text;html=1;align=center;verticalAlign=middle;resizable=0;points=[];autosize=1;strokeColor=none;fillColor=none;fontFamily=Helvetica;fontSize=18;fontColor=default;" vertex="1" parent="1">
          <mxGeometry x="1882" y="769" width="28" height="34" as="geometry" />
        </mxCell>
        <mxCell id="t6iT2jLAAF5-1r6rAyUo-139" value="1" style="text;html=1;align=center;verticalAlign=middle;resizable=0;points=[];autosize=1;strokeColor=none;fillColor=none;fontFamily=Helvetica;fontSize=18;fontColor=default;" vertex="1" parent="1">
          <mxGeometry x="1882" y="894" width="28" height="34" as="geometry" />
        </mxCell>
        <mxCell id="t6iT2jLAAF5-1r6rAyUo-140" value="1" style="text;html=1;align=center;verticalAlign=middle;resizable=0;points=[];autosize=1;strokeColor=none;fillColor=none;fontFamily=Helvetica;fontSize=18;fontColor=default;" vertex="1" parent="1">
          <mxGeometry x="1884" y="1008" width="28" height="34" as="geometry" />
        </mxCell>
        <mxCell id="t6iT2jLAAF5-1r6rAyUo-141" value="1" style="text;html=1;align=center;verticalAlign=middle;resizable=0;points=[];autosize=1;strokeColor=none;fillColor=none;fontFamily=Helvetica;fontSize=18;fontColor=default;" vertex="1" parent="1">
          <mxGeometry x="1824" y="752" width="28" height="34" as="geometry" />
        </mxCell>
        <mxCell id="t6iT2jLAAF5-1r6rAyUo-142" value="" style="ellipse;whiteSpace=wrap;html=1;aspect=fixed;align=center;verticalAlign=middle;fontFamily=Helvetica;fontSize=18;fontColor=default;fillColor=none;gradientColor=none;" vertex="1" parent="1">
          <mxGeometry x="1085" y="1049" width="67" height="67" as="geometry" />
        </mxCell>
        <mxCell id="t6iT2jLAAF5-1r6rAyUo-143" value="" style="ellipse;whiteSpace=wrap;html=1;aspect=fixed;align=center;verticalAlign=middle;fontFamily=Helvetica;fontSize=18;fontColor=default;fillColor=none;gradientColor=none;" vertex="1" parent="1">
          <mxGeometry x="1242.5" y="454.5" width="67" height="67" as="geometry" />
        </mxCell>
        <mxCell id="t6iT2jLAAF5-1r6rAyUo-144" value="" style="ellipse;whiteSpace=wrap;html=1;aspect=fixed;align=center;verticalAlign=middle;fontFamily=Helvetica;fontSize=18;fontColor=default;fillColor=none;gradientColor=none;" vertex="1" parent="1">
          <mxGeometry x="1405.5" y="580" width="67" height="67" as="geometry" />
        </mxCell>
        <mxCell id="t6iT2jLAAF5-1r6rAyUo-145" value="" style="ellipse;whiteSpace=wrap;html=1;aspect=fixed;align=center;verticalAlign=middle;fontFamily=Helvetica;fontSize=18;fontColor=default;fillColor=none;gradientColor=none;" vertex="1" parent="1">
          <mxGeometry x="1571" y="688" width="67" height="67" as="geometry" />
        </mxCell>
        <mxCell id="t6iT2jLAAF5-1r6rAyUo-146" value="" style="ellipse;whiteSpace=wrap;html=1;aspect=fixed;align=center;verticalAlign=middle;fontFamily=Helvetica;fontSize=18;fontColor=default;fillColor=none;gradientColor=none;" vertex="1" parent="1">
          <mxGeometry x="1722.5" y="815" width="67" height="67" as="geometry" />
        </mxCell>
        <mxCell id="t6iT2jLAAF5-1r6rAyUo-147" value="" style="ellipse;whiteSpace=wrap;html=1;aspect=fixed;align=center;verticalAlign=middle;fontFamily=Helvetica;fontSize=18;fontColor=default;fillColor=none;gradientColor=none;" vertex="1" parent="1">
          <mxGeometry x="1891" y="934.5" width="67" height="67" as="geometry" />
        </mxCell>
      </root>
    </mxGraphModel>
  </diagram>
</mxfile>
